<mxfile host="app.diagrams.net" modified="2021-09-13T10:49:20.747Z" agent="5.0 (Windows NT 10.0; Win64; x64) AppleWebKit/537.36 (KHTML, like Gecko) Chrome/93.0.4577.63 Safari/537.36" etag="2zcPOGisjLxO5cF3tpk3" version="15.1.4" type="github">
  <diagram id="zKn1btXUY4NRSkQlBcXw" name="Page-1">
    <mxGraphModel dx="1221" dy="691" grid="1" gridSize="10" guides="1" tooltips="1" connect="1" arrows="1" fold="1" page="1" pageScale="1" pageWidth="850" pageHeight="1100" math="0" shadow="0">
      <root>
        <mxCell id="0" />
        <mxCell id="1" parent="0" />
        <mxCell id="_QcRZ-Q_KwPTVzpmB7S8-20" style="edgeStyle=orthogonalEdgeStyle;rounded=0;orthogonalLoop=1;jettySize=auto;html=1;exitX=0.25;exitY=1;exitDx=0;exitDy=0;" parent="1" source="_QcRZ-Q_KwPTVzpmB7S8-1" edge="1">
          <mxGeometry relative="1" as="geometry">
            <mxPoint x="350" y="340" as="targetPoint" />
          </mxGeometry>
        </mxCell>
        <mxCell id="_QcRZ-Q_KwPTVzpmB7S8-24" style="edgeStyle=orthogonalEdgeStyle;rounded=0;orthogonalLoop=1;jettySize=auto;html=1;exitX=0.75;exitY=0;exitDx=0;exitDy=0;" parent="1" source="_QcRZ-Q_KwPTVzpmB7S8-1" edge="1">
          <mxGeometry relative="1" as="geometry">
            <mxPoint x="410" y="150" as="targetPoint" />
          </mxGeometry>
        </mxCell>
        <mxCell id="_QcRZ-Q_KwPTVzpmB7S8-1" value="Node-RED [Input]&lt;br&gt;&lt;br&gt;[Raspberry Pi]" style="rounded=0;whiteSpace=wrap;html=1;" parent="1" vertex="1">
          <mxGeometry x="320" y="220" width="120" height="60" as="geometry" />
        </mxCell>
        <mxCell id="_QcRZ-Q_KwPTVzpmB7S8-23" style="edgeStyle=orthogonalEdgeStyle;rounded=0;orthogonalLoop=1;jettySize=auto;html=1;exitX=0.25;exitY=1;exitDx=0;exitDy=0;" parent="1" source="_QcRZ-Q_KwPTVzpmB7S8-2" edge="1">
          <mxGeometry relative="1" as="geometry">
            <mxPoint x="350" y="210" as="targetPoint" />
          </mxGeometry>
        </mxCell>
        <mxCell id="_QcRZ-Q_KwPTVzpmB7S8-2" value="Website / Aplikasi" style="rounded=1;whiteSpace=wrap;html=1;" parent="1" vertex="1">
          <mxGeometry x="320" y="80" width="120" height="60" as="geometry" />
        </mxCell>
        <mxCell id="_QcRZ-Q_KwPTVzpmB7S8-17" value="" style="edgeStyle=orthogonalEdgeStyle;rounded=0;orthogonalLoop=1;jettySize=auto;html=1;entryX=0.5;entryY=0;entryDx=0;entryDy=0;" parent="1" source="_QcRZ-Q_KwPTVzpmB7S8-3" target="_QcRZ-Q_KwPTVzpmB7S8-6" edge="1">
          <mxGeometry relative="1" as="geometry" />
        </mxCell>
        <mxCell id="_QcRZ-Q_KwPTVzpmB7S8-18" style="edgeStyle=orthogonalEdgeStyle;rounded=0;orthogonalLoop=1;jettySize=auto;html=1;exitX=1;exitY=0.5;exitDx=0;exitDy=0;" parent="1" source="_QcRZ-Q_KwPTVzpmB7S8-3" target="_QcRZ-Q_KwPTVzpmB7S8-4" edge="1">
          <mxGeometry relative="1" as="geometry" />
        </mxCell>
        <mxCell id="_QcRZ-Q_KwPTVzpmB7S8-19" style="edgeStyle=orthogonalEdgeStyle;rounded=0;orthogonalLoop=1;jettySize=auto;html=1;exitX=0.75;exitY=0;exitDx=0;exitDy=0;" parent="1" source="_QcRZ-Q_KwPTVzpmB7S8-3" edge="1">
          <mxGeometry relative="1" as="geometry">
            <mxPoint x="410" y="290" as="targetPoint" />
          </mxGeometry>
        </mxCell>
        <mxCell id="_QcRZ-Q_KwPTVzpmB7S8-3" value="Arduino UNO" style="shape=parallelogram;perimeter=parallelogramPerimeter;whiteSpace=wrap;html=1;fixedSize=1;rounded=0;" parent="1" vertex="1">
          <mxGeometry x="320" y="350" width="120" height="60" as="geometry" />
        </mxCell>
        <mxCell id="_QcRZ-Q_KwPTVzpmB7S8-25" style="edgeStyle=orthogonalEdgeStyle;rounded=0;orthogonalLoop=1;jettySize=auto;html=1;exitX=0.5;exitY=1;exitDx=0;exitDy=0;entryX=0.5;entryY=0;entryDx=0;entryDy=0;" parent="1" source="_QcRZ-Q_KwPTVzpmB7S8-4" target="_QcRZ-Q_KwPTVzpmB7S8-5" edge="1">
          <mxGeometry relative="1" as="geometry">
            <mxPoint x="570" y="540" as="targetPoint" />
          </mxGeometry>
        </mxCell>
        <mxCell id="_QcRZ-Q_KwPTVzpmB7S8-4" value="Servo Motor" style="rounded=0;whiteSpace=wrap;html=1;" parent="1" vertex="1">
          <mxGeometry x="510" y="450" width="120" height="60" as="geometry" />
        </mxCell>
        <mxCell id="_QcRZ-Q_KwPTVzpmB7S8-26" style="edgeStyle=orthogonalEdgeStyle;rounded=0;orthogonalLoop=1;jettySize=auto;html=1;exitX=0.5;exitY=1;exitDx=0;exitDy=0;entryX=0.75;entryY=0;entryDx=0;entryDy=0;" parent="1" source="_QcRZ-Q_KwPTVzpmB7S8-5" target="_QcRZ-Q_KwPTVzpmB7S8-7" edge="1">
          <mxGeometry relative="1" as="geometry" />
        </mxCell>
        <mxCell id="_QcRZ-Q_KwPTVzpmB7S8-5" value="Potentiometer" style="rounded=0;whiteSpace=wrap;html=1;" parent="1" vertex="1">
          <mxGeometry x="510" y="550" width="120" height="60" as="geometry" />
        </mxCell>
        <mxCell id="_QcRZ-Q_KwPTVzpmB7S8-27" style="edgeStyle=orthogonalEdgeStyle;rounded=0;orthogonalLoop=1;jettySize=auto;html=1;exitX=0.5;exitY=1;exitDx=0;exitDy=0;entryX=0.25;entryY=0;entryDx=0;entryDy=0;" parent="1" source="_QcRZ-Q_KwPTVzpmB7S8-6" target="_QcRZ-Q_KwPTVzpmB7S8-7" edge="1">
          <mxGeometry relative="1" as="geometry" />
        </mxCell>
        <mxCell id="_QcRZ-Q_KwPTVzpmB7S8-6" value="Push Button" style="rounded=0;whiteSpace=wrap;html=1;" parent="1" vertex="1">
          <mxGeometry x="160" y="450" width="120" height="60" as="geometry" />
        </mxCell>
        <mxCell id="_QcRZ-Q_KwPTVzpmB7S8-28" style="edgeStyle=orthogonalEdgeStyle;rounded=0;orthogonalLoop=1;jettySize=auto;html=1;exitX=0.5;exitY=1;exitDx=0;exitDy=0;entryX=0.5;entryY=0;entryDx=0;entryDy=0;" parent="1" source="_QcRZ-Q_KwPTVzpmB7S8-7" target="_QcRZ-Q_KwPTVzpmB7S8-8" edge="1">
          <mxGeometry relative="1" as="geometry" />
        </mxCell>
        <mxCell id="_QcRZ-Q_KwPTVzpmB7S8-7" value="Driver Motor" style="rounded=0;whiteSpace=wrap;html=1;" parent="1" vertex="1">
          <mxGeometry x="320" y="650" width="120" height="60" as="geometry" />
        </mxCell>
        <mxCell id="_QcRZ-Q_KwPTVzpmB7S8-8" value="Stepper Motor" style="rounded=0;whiteSpace=wrap;html=1;" parent="1" vertex="1">
          <mxGeometry x="320" y="750" width="120" height="60" as="geometry" />
        </mxCell>
        <mxCell id="_QcRZ-Q_KwPTVzpmB7S8-30" value="" style="endArrow=classic;html=1;" parent="1" edge="1">
          <mxGeometry width="50" height="50" relative="1" as="geometry">
            <mxPoint x="680" y="160" as="sourcePoint" />
            <mxPoint x="680" y="200" as="targetPoint" />
          </mxGeometry>
        </mxCell>
        <mxCell id="_QcRZ-Q_KwPTVzpmB7S8-31" value="&lt;font style=&quot;font-size: 19px&quot;&gt;= Input Flow&lt;/font&gt;" style="text;html=1;align=center;verticalAlign=middle;resizable=0;points=[];autosize=1;" parent="1" vertex="1">
          <mxGeometry x="690" y="170" width="120" height="20" as="geometry" />
        </mxCell>
        <mxCell id="_QcRZ-Q_KwPTVzpmB7S8-32" value="" style="endArrow=classic;html=1;" parent="1" edge="1">
          <mxGeometry width="50" height="50" relative="1" as="geometry">
            <mxPoint x="680" y="260" as="sourcePoint" />
            <mxPoint x="680" y="220" as="targetPoint" />
          </mxGeometry>
        </mxCell>
        <mxCell id="_QcRZ-Q_KwPTVzpmB7S8-33" value="&lt;font style=&quot;font-size: 19px&quot;&gt;= Output Flow&lt;/font&gt;" style="text;html=1;align=center;verticalAlign=middle;resizable=0;points=[];autosize=1;" parent="1" vertex="1">
          <mxGeometry x="685" y="230" width="130" height="20" as="geometry" />
        </mxCell>
        <mxCell id="CErJr3eCF4j3M--S5c0C-1" value="&lt;div style=&quot;text-align: justify&quot;&gt;Status/Kondisi motor stepper dapat dilihat pada tampilan dashboard control yang berada pada raspberry pi.&lt;/div&gt;&lt;div style=&quot;text-align: justify&quot;&gt;Pemberian Input/Perintah dilakukan pada aplikasi yang kemudian diproses oleh raspberry pi dan diteruskan menuju arduino&lt;br&gt;1. Arduino memberikan perintah kepada push button untuk mengubah arah putaran motor menuju arah kiri atau kanan&lt;br&gt;2. Arduino memberikan perintah kepada Servo motor untuk menggerakan potentiometer yang kemudian akan merubah nilai/value kecepatan pada motor&lt;br&gt;&lt;br&gt;Semua perintah dari push button maupun potentiometer akan di proses oleh driver motor sehingga stepper motor berputar sesuai dengan kondisi yang&lt;/div&gt;&lt;div style=&quot;text-align: justify&quot;&gt;telah diberikan.&amp;nbsp;&lt;/div&gt;" style="text;html=1;align=left;verticalAlign=middle;resizable=0;points=[];autosize=1;fillColor=#fff2cc;strokeColor=#d6b656;" vertex="1" parent="1">
          <mxGeometry x="15" y="855" width="830" height="100" as="geometry" />
        </mxCell>
      </root>
    </mxGraphModel>
  </diagram>
</mxfile>
